<?xml version="1.0" encoding="utf-8"?>
<!-- Generator: Adobe Illustrator 27.9.6, SVG Export Plug-In . SVG Version: 9.03 Build 54986)  -->
<svg version="1.1" id="Layer_1" xmlns="http://www.w3.org/2000/svg" xmlns:xlink="http://www.w3.org/1999/xlink" x="0px" y="0px"
	 viewBox="0 0 85.7 18" style="enable-background:new 0 0 85.7 18;" xml:space="preserve">
<style type="text/css">
	.st0{fill:#FFFFFF;}
</style>
<g>
	<g>
		<path class="st0" d="M26.1,4.8l-3.2,8.6h2.8l0.4-1.3H29l0.4,1.3h2.8l-3.1-8.6H26.1z M26.8,10.1l0.8-2.4l0.8,2.4H26.8z"/>
		<path class="st0" d="M35.1,8.4c0.2,0,0.4,0.1,0.5,0.2c0.1,0.1,0.2,0.2,0.3,0.4h2.4c-0.1-0.7-0.4-1.3-0.9-1.8
			c-0.5-0.5-1.2-0.7-2.2-0.7c-0.6,0-1.2,0.1-1.6,0.3c-0.4,0.2-0.8,0.5-1,0.8c-0.2,0.3-0.3,0.7-0.3,1.2c0,0.5,0.1,0.9,0.4,1.1
			c0.2,0.3,0.5,0.5,0.8,0.6c0.3,0.1,0.7,0.2,1.2,0.3c0.4,0.1,0.7,0.2,0.9,0.2c0.2,0.1,0.3,0.2,0.3,0.3c0,0.1,0,0.2-0.1,0.2
			c-0.1,0.1-0.2,0.1-0.3,0.1c-0.2,0-0.4,0-0.5-0.1c-0.1-0.1-0.2-0.2-0.3-0.5h-2.6c0,0.5,0.2,0.9,0.5,1.3c0.3,0.4,0.7,0.7,1.2,0.9
			c0.5,0.2,1.1,0.3,1.7,0.3c0.6,0,1.1-0.1,1.6-0.3c0.4-0.2,0.8-0.4,1-0.8c0.2-0.3,0.4-0.7,0.4-1.1c0-0.5-0.1-0.9-0.4-1.2
			c-0.3-0.3-0.5-0.5-0.9-0.6c-0.3-0.1-0.8-0.2-1.3-0.3c-0.4-0.1-0.6-0.1-0.8-0.2c-0.2-0.1-0.3-0.2-0.3-0.3c0-0.1,0-0.2,0.1-0.2
			C34.9,8.4,35,8.4,35.1,8.4z"/>
		<path class="st0" d="M42.3,11.1c-0.1-0.1-0.1-0.2-0.1-0.4V8.8h1.1V6.6h-1.1V4.9h-2.7v1.7h-0.9v2.3h0.9v1.8c0,1.9,0.9,2.8,2.8,2.8
			h1v-2.3h-0.6C42.5,11.2,42.3,11.1,42.3,11.1z"/>
		<path class="st0" d="M59.1,8.8c0.3,0,0.5,0.2,0.6,0.5h2.9c-0.2-0.9-0.6-1.6-1.2-2.1c-0.6-0.5-1.4-0.8-2.3-0.8
			c-0.7,0-1.3,0.1-1.8,0.4c-0.5,0.3-0.9,0.7-1.2,1.2c-0.3,0.5-0.4,1.2-0.4,1.9s0.1,1.3,0.4,1.9c0.3,0.5,0.7,0.9,1.2,1.2
			c0.5,0.3,1.1,0.4,1.8,0.4c0.9,0,1.6-0.3,2.3-0.8c0.6-0.5,1-1.2,1.2-2.1h-2.9c-0.1,0.4-0.3,0.5-0.6,0.5c-0.2,0-0.4-0.1-0.5-0.3
			c-0.1-0.2-0.2-0.5-0.2-0.9c0-0.4,0.1-0.7,0.2-0.9C58.7,8.9,58.9,8.8,59.1,8.8z"/>
		<path class="st0" d="M67.6,7.5c-0.2-0.3-0.4-0.6-0.7-0.7c-0.3-0.2-0.7-0.3-1.2-0.3c-0.5,0-1,0.1-1.4,0.4c-0.4,0.3-0.8,0.7-1,1.2
			C63,8.7,62.8,9.3,62.8,10s0.1,1.3,0.4,1.9c0.2,0.5,0.6,0.9,1,1.2c0.4,0.3,0.9,0.4,1.4,0.4c0.4,0,0.8-0.1,1.2-0.3
			c0.3-0.2,0.6-0.4,0.7-0.7v0.9h2.7V6.6h-2.7V7.5z M67.3,10.9c-0.2,0.2-0.4,0.3-0.7,0.3c-0.3,0-0.5-0.1-0.7-0.3
			c-0.2-0.2-0.3-0.5-0.3-0.9c0-0.4,0.1-0.6,0.3-0.9c0.2-0.2,0.4-0.3,0.7-0.3c0.3,0,0.5,0.1,0.7,0.3c0.2,0.2,0.3,0.5,0.3,0.9
			C67.6,10.4,67.5,10.7,67.3,10.9z"/>
		<path class="st0" d="M75.5,7.5C75.3,7.2,75,7,74.7,6.8c-0.3-0.2-0.7-0.3-1.2-0.3c-0.5,0-1,0.1-1.4,0.4c-0.4,0.3-0.8,0.7-1,1.2
			c-0.2,0.5-0.4,1.2-0.4,1.9s0.1,1.3,0.4,1.9c0.2,0.5,0.6,0.9,1,1.2c0.4,0.3,0.9,0.4,1.4,0.4c0.4,0,0.8-0.1,1.2-0.3
			c0.3-0.2,0.6-0.4,0.7-0.7v0.9h2.7v-9h-2.7V7.5z M75.2,10.9c-0.2,0.2-0.4,0.3-0.7,0.3c-0.3,0-0.5-0.1-0.7-0.3
			c-0.2-0.2-0.3-0.5-0.3-0.9c0-0.4,0.1-0.6,0.3-0.9c0.2-0.2,0.4-0.3,0.7-0.3c0.3,0,0.5,0.1,0.7,0.3c0.2,0.2,0.3,0.5,0.3,0.9
			C75.5,10.4,75.4,10.7,75.2,10.9z"/>
		<path class="st0" d="M84,6.9c-0.5-0.3-1.1-0.4-1.8-0.4c-0.7,0-1.3,0.1-1.8,0.4c-0.5,0.3-0.9,0.7-1.2,1.2c-0.3,0.5-0.4,1.2-0.4,1.9
			s0.1,1.3,0.4,1.9c0.3,0.5,0.7,0.9,1.2,1.2c0.5,0.3,1.1,0.4,1.8,0.4c0.6,0,1.1-0.1,1.6-0.3c0.5-0.2,0.9-0.5,1.2-0.9
			c0.3-0.4,0.5-0.8,0.6-1.3h-2.9c-0.1,0.3-0.3,0.4-0.6,0.4c-0.5,0-0.7-0.3-0.7-0.9h4.3c0-0.2,0-0.3,0-0.5c0-0.7-0.1-1.3-0.4-1.8
			C84.9,7.6,84.5,7.2,84,6.9z M81.3,9.3c0.1-0.5,0.4-0.7,0.8-0.7c0.2,0,0.4,0.1,0.5,0.2c0.1,0.1,0.2,0.3,0.2,0.5H81.3z"/>
		<path class="st0" d="M53.7,6.9c-0.6-0.3-1.2-0.4-1.9-0.4c-0.7,0-1.3,0.1-1.9,0.4c-0.6,0.3-1,0.7-1.3,1.2c-0.3,0.5-0.5,1.2-0.5,1.9
			s0.2,1.3,0.5,1.9c0.3,0.5,0.7,0.9,1.3,1.2c0.6,0.3,1.2,0.4,1.9,0.4c0.7,0,1.3-0.1,1.9-0.4c0.6-0.3,1-0.7,1.3-1.2
			c0.3-0.5,0.5-1.2,0.5-1.9S55.3,8.7,55,8.2C54.7,7.6,54.2,7.2,53.7,6.9z M52.4,10.9c-0.2,0.2-0.4,0.3-0.6,0.3
			c-0.3,0-0.5-0.1-0.6-0.3c-0.2-0.2-0.2-0.5-0.2-0.9c0-0.4,0.1-0.7,0.3-0.9s0.4-0.3,0.6-0.3c0.3,0,0.5,0.1,0.6,0.3
			c0.2,0.2,0.3,0.5,0.3,0.9C52.7,10.4,52.6,10.7,52.4,10.9z"/>
		<path class="st0" d="M48.2,6.6c-0.2,0.1-0.5,0.1-0.7,0.3c-0.4,0.2-0.7,0.6-1,1V6.6h-2.7v6.9h2.7v-2.8c0-0.8,0.8-1.1,1.5-1.2
			L48.2,6.6z"/>
	</g>
	<path class="st0" d="M13.8,6.7c-0.5,0-0.9,0.4-0.9,0.9c0,0.5,0.4,0.9,0.9,0.9c0.5,0,0.9-0.4,0.9-0.9C14.8,7.1,14.3,6.7,13.8,6.7z
		 M12,8.7c-0.5,0-0.9,0.4-0.9,0.9c0,0.5,0.4,0.9,0.9,0.9c0.5,0,0.9-0.4,0.9-0.9C12.9,9.1,12.5,8.7,12,8.7z M8.2,8h-1V7
		c0-0.1-0.1-0.2-0.2-0.2H6.2C6.1,6.8,6,6.9,6,7v1H5C4.9,8,4.7,8.1,4.7,8.3V9c0,0.1,0.1,0.2,0.2,0.2h1v1c0,0.1,0.1,0.2,0.2,0.2H7
		c0.1,0,0.2-0.1,0.2-0.2v-1h1c0.1,0,0.2-0.1,0.2-0.2V8.3C8.5,8.1,8.4,8,8.2,8z M18.6,7.2L18.3,6c-0.2-0.6-0.7-1.1-1.4-1.2l-3.6-0.7
		l-1.8-3.2C11.2,0.4,10.6,0,10,0H8.8C8.1,0,7.5,0.4,7.2,0.9L5.4,4.1L1.8,4.8C1.2,4.9,0.7,5.4,0.5,6L0.1,7.2C-0.1,7.8,0,8.5,0.5,9
		L3,11.6l-0.4,3.6c-0.1,0.7,0.2,1.3,0.7,1.7l1,0.7C4.5,17.9,4.9,18,5.3,18c0.3,0,0.5-0.1,0.8-0.2l3.3-1.5l3.3,1.5
		c0.6,0.3,1.3,0.2,1.9-0.2l1-0.7c0.5-0.4,0.8-1,0.7-1.7l-0.4-3.6L18.2,9C18.7,8.5,18.9,7.8,18.6,7.2z M17.5,8l-2.8,3l0.5,4.1
		c0,0.3-0.1,0.6-0.3,0.7l-1,0.7c-0.2,0.2-0.5,0.2-0.8,0.1l-3.7-1.7l-3.7,1.7c-0.3,0.1-0.6,0.1-0.8-0.1l-1-0.7
		c-0.2-0.2-0.3-0.4-0.3-0.7L4.1,11L1.3,8C1.1,7.8,1,7.5,1.1,7.2l0.4-1.1c0.1-0.3,0.3-0.5,0.6-0.5l4-0.8l2-3.6
		c0.1-0.2,0.4-0.4,0.7-0.4H10c0.3,0,0.5,0.2,0.7,0.4l2,3.6l4,0.8c0.3,0.1,0.5,0.3,0.6,0.5l0.4,1.1C17.7,7.5,17.7,7.8,17.5,8z"/>
</g>
</svg>
