<?xml version="1.0" encoding="utf-8"?>
<!-- Generator: Adobe Illustrator 27.9.6, SVG Export Plug-In . SVG Version: 9.03 Build 54986)  -->
<svg version="1.1" id="Layer_1" xmlns="http://www.w3.org/2000/svg" xmlns:xlink="http://www.w3.org/1999/xlink" x="0px" y="0px"
	 viewBox="0 0 612 792" style="enable-background:new 0 0 612 792;" xml:space="preserve">
<style type="text/css">
	.st0{fill:#FFFFFF;}
</style>
<g>
	<path class="st0" d="M250.8,382.1l-10.4,28.5h9.4l1.4-4.3h9.5l1.4,4.3h9.4l-10.4-28.5H250.8z M253.3,399.5l2.6-7.9l2.6,7.9H253.3z"
		/>
	<path class="st0" d="M280.7,393.8c0.7,0,1.3,0.2,1.7,0.5c0.4,0.3,0.7,0.8,0.8,1.4h7.9c-0.3-2.4-1.4-4.4-3.1-5.9s-4.1-2.3-7.2-2.3
		c-2.1,0-3.8,0.3-5.3,1c-1.4,0.7-2.5,1.6-3.3,2.7c-0.7,1.1-1.1,2.4-1.1,3.8c0,1.6,0.4,2.9,1.2,3.8c0.8,0.9,1.7,1.6,2.8,1.9
		c1.1,0.4,2.4,0.7,4,1c1.3,0.3,2.3,0.5,2.9,0.7c0.6,0.2,0.8,0.6,0.8,1.1c0,0.3-0.1,0.5-0.4,0.7c-0.3,0.2-0.6,0.3-1.1,0.3
		c-0.7,0-1.3-0.2-1.8-0.5c-0.5-0.3-0.8-0.8-0.9-1.5h-8.6c0.1,1.6,0.7,3,1.7,4.2c1,1.2,2.3,2.2,3.9,2.9c1.7,0.7,3.6,1,5.7,1
		c2,0,3.7-0.3,5.1-0.9c1.5-0.6,2.6-1.5,3.4-2.5c0.8-1.1,1.2-2.3,1.2-3.6c0-1.7-0.4-3.1-1.2-4c-0.8-1-1.8-1.7-2.9-2.1
		c-1.1-0.4-2.5-0.8-4.1-1.1c-1.2-0.2-2.1-0.5-2.7-0.7c-0.6-0.2-0.8-0.6-0.8-1c0-0.3,0.1-0.6,0.4-0.8
		C279.9,393.9,280.3,393.8,280.7,393.8z"/>
	<path class="st0" d="M304.4,402.6c-0.3-0.2-0.4-0.6-0.4-1.2v-6.1h3.7v-7.5H304v-5.5h-8.9v5.5h-2.8v7.5h2.8v6c0,6.2,3.1,9.3,9.3,9.3
		h3.4V403h-2.1C305.1,403,304.6,402.8,304.4,402.6z"/>
	<path class="st0" d="M360.2,395.2c1,0,1.7,0.6,2.1,1.8h9.5c-0.5-3-1.8-5.3-3.8-6.9c-2-1.7-4.5-2.5-7.5-2.5c-2.3,0-4.3,0.5-6,1.4
		c-1.8,0.9-3.1,2.3-4.1,4c-1,1.8-1.5,3.8-1.5,6.2s0.5,4.4,1.5,6.2c1,1.8,2.3,3.1,4.1,4c1.8,0.9,3.8,1.4,6,1.4c3,0,5.4-0.8,7.5-2.5
		c2-1.7,3.3-4,3.8-6.9h-9.5c-0.4,1.2-1,1.8-2.1,1.8c-0.7,0-1.3-0.3-1.7-1c-0.4-0.7-0.6-1.7-0.6-3c0-1.3,0.2-2.3,0.6-3
		C358.9,395.6,359.5,395.2,360.2,395.2z"/>
	<path class="st0" d="M388.2,391c-0.6-1-1.4-1.9-2.5-2.5c-1.1-0.6-2.4-0.9-3.8-0.9c-1.8,0-3.4,0.5-4.8,1.4c-1.4,0.9-2.5,2.3-3.4,4
		c-0.8,1.8-1.2,3.8-1.2,6.2c0,2.4,0.4,4.5,1.2,6.2c0.8,1.8,1.9,3.1,3.4,4c1.4,0.9,3,1.4,4.8,1.4c1.5,0,2.8-0.3,3.8-0.9
		c1.1-0.6,1.9-1.4,2.5-2.5v3.1h8.9v-22.7h-8.9V391z M387.2,402c-0.6,0.7-1.4,1-2.4,1c-1,0-1.8-0.3-2.4-1c-0.6-0.7-0.9-1.6-0.9-2.8
		c0-1.2,0.3-2.1,0.9-2.8c0.6-0.7,1.4-1,2.4-1c1,0,1.8,0.3,2.4,1c0.6,0.7,0.9,1.6,0.9,2.8C388.2,400.4,387.8,401.4,387.2,402z"/>
	<path class="st0" d="M414.2,391c-0.6-1-1.4-1.9-2.4-2.5c-1.1-0.6-2.3-0.9-3.8-0.9c-1.8,0-3.4,0.5-4.8,1.4c-1.4,0.9-2.5,2.3-3.4,4
		c-0.8,1.8-1.2,3.8-1.2,6.2c0,2.4,0.4,4.5,1.2,6.2c0.8,1.8,1.9,3.1,3.4,4c1.4,0.9,3,1.4,4.8,1.4c1.5,0,2.7-0.3,3.8-0.9
		s1.9-1.4,2.4-2.5v3.1h8.9v-29.8h-8.9V391z M413.3,402c-0.6,0.7-1.4,1-2.4,1c-1,0-1.8-0.3-2.4-1c-0.6-0.7-0.9-1.6-0.9-2.8
		c0-1.2,0.3-2.1,0.9-2.8c0.6-0.7,1.4-1,2.4-1c1,0,1.8,0.3,2.4,1c0.6,0.7,0.9,1.6,0.9,2.8C414.2,400.4,413.9,401.4,413.3,402z"/>
	<path class="st0" d="M442.5,389c-1.8-0.9-3.8-1.4-6-1.4c-2.3,0-4.3,0.5-6,1.4c-1.8,0.9-3.1,2.3-4.1,4c-1,1.8-1.5,3.8-1.5,6.2
		s0.5,4.4,1.5,6.2c1,1.8,2.3,3.1,4.1,4c1.8,0.9,3.8,1.4,6,1.4c1.9,0,3.6-0.4,5.2-1.1c1.6-0.7,2.9-1.7,3.9-3c1-1.3,1.7-2.7,2-4.3
		h-9.5c-0.4,0.9-1.1,1.3-2.1,1.3c-1.5,0-2.3-1-2.5-2.9h14.4c0.1-0.6,0.1-1.2,0.1-1.8c0-2.3-0.5-4.4-1.5-6.1
		C445.6,391.2,444.2,389.9,442.5,389z M433.7,396.9c0.3-1.5,1.2-2.3,2.8-2.3c0.7,0,1.3,0.2,1.8,0.6c0.5,0.4,0.7,1,0.7,1.7H433.7z"/>
	<path class="st0" d="M342.2,389c-1.8-0.9-3.9-1.4-6.2-1.4c-2.3,0-4.3,0.5-6.2,1.4c-1.8,0.9-3.3,2.3-4.3,4c-1,1.8-1.6,3.8-1.6,6.2
		s0.5,4.4,1.6,6.2c1,1.8,2.5,3.1,4.3,4c1.8,0.9,3.9,1.4,6.2,1.4c2.3,0,4.3-0.5,6.2-1.4c1.8-0.9,3.3-2.3,4.3-4c1-1.8,1.6-3.8,1.6-6.2
		s-0.5-4.4-1.6-6.2C345.4,391.3,344,389.9,342.2,389z M338.1,402.1c-0.6,0.7-1.3,1-2.1,1c-0.9,0-1.6-0.3-2.1-1
		c-0.6-0.7-0.8-1.6-0.8-2.9c0-1.3,0.3-2.3,0.8-2.9c0.6-0.7,1.3-1,2.1-1c0.8,0,1.5,0.3,2.1,1c0.6,0.7,0.8,1.6,0.8,2.9
		C338.9,400.5,338.7,401.5,338.1,402.1z"/>
	<path class="st0" d="M324,387.9c-0.8,0.2-1.6,0.5-2.3,0.9c-1.3,0.8-2.4,1.9-3.3,3.2v-4.2h-8.9v22.7h8.9v-9.3c0-2.7,2.6-3.6,4.9-3.9
		L324,387.9z"/>
</g>
<path class="st0" d="M210.4,388.3c-1.7,0-3,1.4-3,3c0,1.7,1.4,3,3,3c1.7,0,3-1.4,3-3C213.4,389.7,212,388.3,210.4,388.3z
	 M204.2,394.9c-1.7,0-3,1.4-3,3c0,1.7,1.4,3,3,3c1.7,0,3-1.4,3-3C207.3,396.3,205.9,394.9,204.2,394.9z M191.8,392.5h-3.2v-3.2
	c0-0.5-0.4-0.8-0.8-0.8h-2.6c-0.5,0-0.8,0.4-0.8,0.8v3.2h-3.2c-0.5,0-0.8,0.4-0.8,0.8v2.6c0,0.5,0.4,0.8,0.8,0.8h3.2v3.2
	c0,0.5,0.4,0.8,0.8,0.8h2.6c0.5,0,0.8-0.4,0.8-0.8v-3.2h3.2c0.5,0,0.8-0.4,0.8-0.8v-2.6C192.7,392.9,192.3,392.5,191.8,392.5z
	 M226.3,389.8l-1.2-3.7c-0.7-2.1-2.4-3.7-4.6-4.1l-11.8-2.3l-5.8-10.5c-1.1-1.9-3.1-3.1-5.3-3.1h-3.9c-2.2,0-4.2,1.2-5.3,3.1
	l-5.8,10.5l-11.8,2.3c-2.2,0.4-3.9,2-4.6,4.1l-1.2,3.7c-0.7,2.1-0.2,4.4,1.3,6l8.2,8.8l-1.5,11.9c-0.3,2.2,0.7,4.4,2.5,5.6l3.2,2.3
	c1.1,0.8,2.3,1.2,3.6,1.2c0.9,0,1.7-0.2,2.6-0.6l10.9-5.1l10.9,5.1c2,0.9,4.3,0.7,6.1-0.6l3.2-2.3c1.8-1.3,2.7-3.5,2.5-5.6
	l-1.5-11.9l8.2-8.8C226.5,394.2,227,391.9,226.3,389.8z M222.4,392.4l-9.3,10l1.7,13.5c0.1,0.9-0.3,1.8-1,2.4l-3.2,2.3
	c-0.8,0.5-1.7,0.6-2.6,0.2l-12.4-5.8l-12.4,5.8c-0.8,0.4-1.8,0.3-2.6-0.2l-3.2-2.3c-0.8-0.5-1.2-1.5-1-2.4l1.7-13.5l-9.3-10
	c-0.6-0.7-0.9-1.7-0.6-2.5l1.2-3.7c0.3-0.9,1-1.5,2-1.7l13.4-2.6l6.6-11.9c0.5-0.8,1.3-1.3,2.2-1.3h3.9c0.9,0,1.8,0.5,2.2,1.3
	l6.6,11.9l13.4,2.6c0.9,0.2,1.7,0.8,2,1.7l1.2,3.7C223.2,390.7,223,391.7,222.4,392.4z"/>
</svg>
